<svg width="27" height="23" viewBox="0 0 27 23" fill="none" xmlns="http://www.w3.org/2000/svg">
<path d="M0.743862 7.66163C-0.0300548 3.73536 2.83007 0.33429 7.28851 0.0130497C11.2142 -0.267398 13.1602 4.0566 13.5528 4.88265C13.5571 4.8965 13.5663 4.90868 13.5789 4.91736C13.5916 4.92603 13.607 4.93073 13.6229 4.93073C13.6387 4.93073 13.6541 4.92603 13.6668 4.91736C13.6794 4.90868 13.6886 4.8965 13.693 4.88265C15.5156 0.339389 18.8356 0.145625 20.0021 0.0385451C23.1426 -0.267398 27.3543 1.94049 26.5075 7.08544C25.2961 14.2241 13.5415 22.2857 13.5415 22.2857C13.5415 22.2857 2.27487 15.3357 0.743862 7.66163Z" fill="#090808"/>
</svg>
